# AST/ASF file generated using VICON BodyLanguage
# -----------------------------------------------
:version 1.10
:name VICON
:units
  mass 1.0
  length 0.45
  angle deg
:documentation
   .ast/.asf automatically generated from VICON data using
   VICON BodyBuilder and BodyLanguage model FoxedUp or BRILLIANT.MOD
:root
   order TX TY TZ RX RY RZ
   axis XYZ
   position 0 0 0  
   orientation 0 0 0 
:bonedata
  begin
     id 1 
     name lhipjoint
     direction 0.630082 -0.636569 0.44472 
     length 2.82754 
     axis 0 0 0  XYZ
  end
  begin
     id 2 
     name lfemur
     direction 0.34202 -0.939693 0  
     length 7.26371  
     axis 0 0 20  XYZ
    dof rx ry rz
    limits (-160.0 20.0)
           (-70.0 70.0)
           (-60.0 70.0)
  end
  begin
     id 3 
     name ltibia
     direction 0.34202 -0.939693 0   
     length 7.88616   
     axis 0 0 20   XYZ
    dof rx
    limits (-10.0 170.0)
  end
  begin
     id 4 
     name lfoot
     direction 0.0603448 -0.165796 0.984312   
     length 1.77861   
     axis -90 7.62852e-016 20   XYZ
    dof rx rz
    limits (-45.0 90.0)
           (-70.0 20.0)
  end
  begin
     id 5 
     name ltoes
     direction 1.53577e-011 -4.21876e-011 1   
     length 0.902235   
     axis -90 7.62852e-016 20   XYZ
    dof rx
    limits (-90.0 20.0)
  end
  begin
     id 6 
     name rhipjoint
     direction -0.656778 -0.61817 0.431866   
     length 2.9117  
     axis 0 0 0  XYZ 
  end
  begin
     id 7 
     name rfemur
     direction -0.34202 -0.939693 0   
     length 6.81603   
     axis 0 0 -20   XYZ
    dof rx ry rz
    limits (-160.0 20.0)
           (-70.0 70.0)
           (-70.0 60.0)
  end
  begin
     id 8 
     name rtibia
     direction -0.34202 -0.939693 0   
     length 8.05997   
     axis 0 0 -20   XYZ
    dof rx
    limits (-10.0 170.0)
 end
 begin
     id 9 
     name rfoot
     direction -0.0862404 -0.236944 0.967688   
     length 1.84899  
     axis -90 -7.62852e-016 -20   XYZ
    dof rx rz
    limits (-45.0 90.0)
           (-20.0 70.0)
  end
  begin
     id 10 
     name rtoes
     direction -1.53561e-011 -4.21798e-011 1   
     length 0.931579   
     axis -90 -7.62852e-016 -20   XYZ
    dof rx
    limits (-90.0 20.0)
  end
  begin
     id 11 
     name lowerback
     direction -0.0110203 0.991769 -0.127564   
     length 2.05686   
     axis 0 0 0   XYZ
    dof rx ry rz
    limits (-20.0 45.0)
           (-30.0 30.0)
           (-30.0 30.0)
  end
  begin
     id 12 
     name upperback
     direction 0.0109719 0.99993 -0.00432479   
     length 2.06234   
     axis 0 0 0   XYZ
    dof rx ry rz
    limits (-20.0 45.0)
           (-30.0 30.0)
           (-30.0 30.0)
  end
  begin
     id 13 
     name thorax
     direction 0.0173308 0.998351 0.0547306   
     length 2.09856   
     axis 0 0 0   XYZ
    dof rx ry rz
    limits (-20.0 45.0)
           (-30.0 30.0)
           (-30.0 30.0)
  end
  begin
     id 14 
     name lowerneck
     direction -0.0311736 0.989033 0.144366   
     length 1.98151   
     axis 0 0 0   XYZ
    dof rx ry rz
    limits (-20.0 45.0)
           (-30.0 30.0)
           (-30.0 30.0)
  end
  begin
     id 15 
     name upperneck
     direction 0.0421057 0.975772 -0.214698   
     length 2.01457   
     axis 0 0 0   XYZ
    dof rx ry rz
    limits (-20.0 45.0)
           (-30.0 30.0)
           (-30.0 30.0)
  end
  begin
     id 16
     name head
     direction 0.0136911 0.995958 -0.0887718  
     length 2.03562  
     axis 0 0 0   XYZ
    dof rx ry rz
    limits (-20.0 45.0)
           (-30.0 30.0)
           (-30.0 30.0)
  end
  begin
     id 17 
     name lclavicle
     direction 0.915335 0.396201 0.0720134  
     length 4.16217  
     axis 0 0 0   XYZ
    dof ry rz
    limits (-20.0 10.0)
           (0.0 20.0)
  end
  begin
     id 18 
     name lhumerus
     direction 1 -4.48965e-011 6.383e-018   
     length 4.93042   
     axis -180 -30 -90   XYZ
    dof rx ry rz
    limits (-60.0 90.0)
           (-90.0 90.0)
           (-90.0 90.0)
  end
  begin
     id 19
     name lradius
     direction 1 -4.48972e-011 8.8689e-027   
     length 3.68177   
     axis -180 -30 -90   XYZ
    dof rx
    limits (-10.0 170.0)
  end
  begin
     id 20
     name lwrist
     direction 1 -4.48953e-011 1.17971e-026   
     length 1.84089   
     axis -7.69454e-015 90 90   XYZ
    dof ry
    limits (-180.0 0.0)
 end
  begin
     id 21 
     name lhand
     direction 1 -4.49027e-011 2.35802e-026   
     length 0.721479   
     axis -1.50533e-014 90 90   XYZ
    dof rx rz
    limits (-90.0 90.0)
           (-45.0 45.0)
  end
  begin
     id 22 
     name lfingers
     direction 1 -4.48915e-011 4.72027e-026   
     length 0.581675   
     axis -3.01059e-014 90 90   XYZ
    dof rx
    limits (0.0 90.0)
  end
  begin
     id 23
     name lthumb
     direction 0.707107 -6.34948e-011 0.707107   
     length 0.835172   
     axis -90 45 -5.12164e-014   XYZ
    dof rx rz
    limits (-45.0 45.0)
           (-45.0 45.0)
  end
  begin
     id 24 
     name rclavicle
     direction -0.882781 0.469197 0.0234974   
     length 3.95647  
     axis 0 0 0   XYZ 
    dof ry rz
    limits (-10.0 20.0)
           (-20.0 0.0)
  end
  begin
     id 25 
     name rhumerus
     direction -1 -4.48965e-011 -1.54906e-018  
     length 5.07905   
     axis -180 30 90   XYZ
    dof rx ry rz
    limits (-90.0 60.0)
           (-90.0 90.0)
           (-90.0 90.0)
  end
  begin
     id 26 
     name rradius
     direction -1 -4.48972e-011 5.47489e-027   
     length 3.54394   
     axis -180 30 90   XYZ
    dof rx
    limits (-10.0 170.0)
  end
  begin
     id 27 
     name rwrist
     direction -1 -4.48955e-011 1.17969e-026   
     length 1.77197   
     axis -7.69454e-015 -90 -90   XYZ
    dof ry
    limits (-180.0 0.0)
  end
  begin
     id 28
     name rhand
     direction -1 -4.48982e-011 2.35888e-026   
     length 0.681156   
     axis -1.50533e-014 -90 -90   XYZ
    dof rx rz
    limits (-90.0 90.0)
           (-45.0 45.0)
  end
  begin
     id 29
     name rfingers
     direction -1 -4.48955e-011 4.71877e-026   
     length 0.549165   
     axis -3.01059e-014 -90 -90   XYZ
    dof rx
    limits (0.0 90.0)
  end
  begin
     id 30
     name rthumb
     direction -0.707107 -6.3491e-011 0.707107   
     length 0.788495   
     axis -90 -45 5.12164e-014   XYZ
    dof rx rz
    limits (-45.0 45.0)
           (-45.0 45.0)
  end
:hierarchy
  begin
    root lhipjoint rhipjoint lowerback
    lhipjoint lfemur
    lfemur ltibia
    ltibia lfoot
    lfoot ltoes
    rhipjoint rfemur
    rfemur rtibia
    rtibia rfoot
    rfoot rtoes
    lowerback upperback
    upperback thorax
    thorax lowerneck lclavicle rclavicle
    lowerneck upperneck
    upperneck head
    lclavicle lhumerus
    lhumerus lradius
    lradius lwrist
    lwrist lhand lthumb
    lhand lfingers
    rclavicle rhumerus
    rhumerus rradius
    rradius rwrist
    rwrist rhand rthumb
    rhand rfingers
  end

#!OML:ASF H:\Bending\Project 1\Capture day 1\Session 1\Subject.ASF
:FULLY-SPECIFIED
:DEGREES
255
root -10.2357 18.2934 -16.6153 -155.272 87.516 -168.302
lowerback 8.2739 -0.49153 0.854306
upperback -1.60513 -0.41514 2.13031
thorax -6.31916 -0.18531 1.80428
lowerneck -31.1959 -4.04866 -5.85734
upperneck 30.7356 -3.86702 3.08596
head 16.4659 -1.72932 1.48538
rclavicle -2.38542e-015 1.98785e-015
rhumerus 43.8003 10.887 -76.7685
rradius 23.3316
rwrist 17.0493
rhand -25.6851 -30.6424
rfingers 7.12502
rthumb 0.849869 -60.6205
lclavicle -2.38542e-015 1.98785e-015
lhumerus 46.8413 -24.3044 66.7611
lradius 25.946
lwrist 39.6636
lhand -29.8378 20.0781
lfingers 7.12502
lthumb -3.16079 50.0344
rfemur -4.29798 -0.757619 15.1713
rtibia -2.8625e-014
rfoot -6.77789 -18.6961
rtoes -1.01261
lfemur -16.7456 -14.8917 -11.1084
ltibia 20.9084
lfoot -20.5831 10.1562
ltoes 15.8275
256
root -10.2381 18.2928 -16.6169 -155.421 87.525 -168.422
lowerback 8.20007 -0.502495 0.882127
upperback -1.66588 -0.425691 2.1487
thorax -6.34108 -0.190879 1.80915
lowerneck -31.1315 -3.95246 -5.7451
upperneck 30.9228 -3.72094 2.92608
head 16.5278 -1.67969 1.43312
rclavicle -1.3418e-014 -7.15625e-015
rhumerus 43.3807 11.4975 -75.8608
rradius 24.0712
rwrist 15.389
rhand -26.2719 -31.9258
rfingers 7.12502
rthumb 0.283112 -61.9053
lclavicle -1.3418e-014 -7.15625e-015
lhumerus 46.3101 -24.4474 66.3671
lradius 26.7046
lwrist 40.6495
lhand -29.408 19.9815
lfingers 7.12502
lthumb -2.74569 49.9436
rfemur -4.29836 -0.747499 15.1736
rtibia -9.54166e-015
rfoot -6.573 -18.7549
rtoes -1.80516
lfemur -16.7361 -14.7192 -11.145
ltibia 20.9307
lfoot -20.4452 10.0726
ltoes 15.5546
257
root -10.2393 18.2931 -16.6175 -155.772 87.5409 -168.736
lowerback 8.13261 -0.51651 0.86011
upperback -1.74794 -0.443463 2.18774
thorax -6.38848 -0.197499 1.86514
lowerneck -31.0418 -3.84016 -5.64533
upperneck 31.146 -3.53725 2.7497
head 16.6006 -1.61862 1.38488
rclavicle -7.65321e-015 -1.74931e-014
rhumerus 42.7329 12.2007 -74.8525
rradius 25.121
rwrist 13.8166
rhand -26.9453 -33.0644
rfingers 7.12502
rthumb -0.367253 -63.0438
lclavicle -7.65321e-015 -1.74931e-014
lhumerus 45.4645 -24.5036 66.1865
lradius 27.7126
lwrist 41.7159
lhand -29.081 19.6893
lfingers 7.12502
lthumb -2.42993 49.6552
rfemur -4.27814 -0.734519 15.1612
rtibia 2.06736e-014
rfoot -6.44681 -18.8026
rtoes -2.15041
lfemur -16.7088 -14.563 -11.1941
ltibia 20.9421
lfoot -20.3046 10.0303
ltoes 15.227
258
root -10.2386 18.2942 -16.6166 -156.243 87.5706 -169.159
lowerback 8.06399 -0.52962 0.79226
upperback -1.84588 -0.463409 2.2412
thorax -6.45149 -0.202908 1.96264
lowerneck -30.9309 -3.71794 -5.56157
upperneck 31.3963 -3.32783 2.57
head 16.6824 -1.5494 1.34416
rclavicle 7.05686e-015 3.81667e-014
rhumerus 41.8075 12.9643 -73.8255
rradius 26.5372
rwrist 12.518
rhand -27.5971 -34.1378
rfingers 7.12502
rthumb -0.996803 -64.1152
lclavicle 7.05686e-015 3.81667e-014
lhumerus 44.3115 -24.5051 66.1921
lradius 28.9968
lwrist 42.8477
lhand -28.9342 19.2297
lfingers 7.12502
lthumb -2.28817 49.1972
rfemur -4.22448 -0.710614 15.1333
rtibia 4.77083e-015
rfoot -6.46349 -18.8239
rtoes -1.81656
lfemur -16.6507 -14.4523 -11.2502
ltibia 20.9402
lfoot -20.1978 10.0322
ltoes 14.9259
259
root -10.2353 18.2953 -16.6139 -156.824 87.6141 -169.679
lowerback 7.98426 -0.5406 0.695039
upperback -1.95021 -0.483485 2.29622
thorax -6.51459 -0.207024 2.07832
lowerneck -30.807 -3.59008 -5.48369
upperneck 31.6567 -3.1065 2.39319
head 16.7674 -1.47553 1.30851
rclavicle 6.55989e-015 -1.27222e-014
rhumerus 40.5781 13.7519 -72.8601
rradius 28.3473
rwrist 11.5804
rhand -28.1451 -35.1768
rfingers 7.12502
rthumb -1.52608 -65.1511
lclavicle 6.55989e-015 -1.27222e-014
lhumerus 42.8866 -24.491 66.3194
lradius 30.5723
lwrist 44.0409
lhand -29.0175 18.6659
lfingers 7.12502
lthumb -2.36858 48.6325
rfemur -4.13102 -0.674763 15.0917
rtibia -1.59028e-015
rfoot -6.62865 -18.8165
rtoes -0.884002
lfemur -16.5571 -14.4037 -11.3099
ltibia 20.9299
lfoot -20.1538 10.0667
ltoes 14.7179
260
root -10.2291 18.2956 -16.6097 -157.556 87.6616 -170.335
lowerback 7.88656 -0.552987 0.589819
upperback -2.05201 -0.507364 2.34084
thorax -6.56451 -0.212855 2.18779
lowerneck -30.6757 -3.45724 -5.39392
upperneck 31.9083 -2.88291 2.21699
head 16.8471 -1.39917 1.27133
rclavicle 2.98177e-016 -1.82882e-014
rhumerus 39.0357 14.536 -72.0129
rradius 30.5502
rwrist 10.9555
rhand -28.5726 -36.1277
rfingers 7.12502
rthumb -1.93891 -66.0986
lclavicle 2.98177e-016 -1.82882e-014
lhumerus 41.2228 -24.4795 66.5162
lradius 32.4324
lwrist 45.2664
lhand -29.3268 18.0809
lfingers 7.12502
lthumb -2.66735 48.0439
rfemur -3.99906 -0.635705 15.0429
rtibia -2.54444e-014
rfoot -6.88785 -18.7912
rtoes 0.290728
lfemur -16.4329 -14.4181 -11.3714
ltibia 20.9216
lfoot -20.1827 10.1143
ltoes 14.6261
261
root -10.2201 18.2945 -16.6049 -158.436 87.6954 -171.125
lowerback 7.77106 -0.573673 0.49533
upperback -2.14715 -0.542675 2.37061
thorax -6.59685 -0.225093 2.2767
lowerneck -30.5377 -3.31779 -5.27694
upperneck 32.1374 -2.6602 2.03392
head 16.9146 -1.32087 1.22573
rclavicle -6.26172e-015 -2.70347e-014
rhumerus 37.1766 15.3003 -71.3153
rradius 33.122
rwrist 10.4837
rhand -28.9501 -36.8523
rfingers 7.12502
rthumb -2.3035 -66.8196
lclavicle -6.26172e-015 -2.70347e-014
lhumerus 39.3286 -24.4587 66.7714
lradius 34.5485
lwrist 46.4511
lhand -29.7909 17.5563
lfingers 7.12502
lthumb -3.1155 47.5133
rfemur -3.83597 -0.608713 14.9983
rtibia 7.95139e-015
rfoot -7.15104 -18.7691
rtoes 1.22635
lfemur -16.289 -14.481 -11.432
ltibia 20.9273
lfoot -20.2725 10.154
ltoes 14.6324
262
root -10.2084 18.2914 -16.6 -159.358 87.6979 -171.941
lowerback 7.64604 -0.608313 0.422347
upperback -2.23784 -0.595293 2.38961
thorax -6.61849 -0.246958 2.34414
lowerneck -30.3882 -3.17222 -5.13083
upperneck 32.3409 -2.43946 1.84118
head 16.967 -1.24117 1.16984
rclavicle 1.68967e-014 -1.43125e-014
rhumerus 34.9901 16.0303 -70.7878
rradius 36.0216
rwrist 9.97157
rhand -29.4111 -37.1747
rfingers 7.12502
rthumb -2.74877 -67.1368
lclavicle 1.68967e-014 -1.43125e-014
lhumerus 37.1893 -24.4032 67.1102
lradius 36.877
lwrist 47.4913
lhand -30.2838 17.1486
lfingers 7.12502
lthumb -3.59157 47.0981
rfemur -3.65172 -0.608066 14.972
rtibia 1.59028e-015
rfoot -7.33085 -18.7739
rtoes 1.51899
lfemur -16.1369 -14.5669 -11.487
ltibia 20.9543
lfoot -20.394 10.1689
ltoes 14.6963
263
root -10.1944 18.2866 -16.5954 -160.14 87.6611 -172.606
lowerback 7.52429 -0.656361 0.372736
upperback -2.33095 -0.66329 2.4058
thorax -6.6441 -0.277257 2.39746
lowerneck -30.2217 -3.02759 -4.97232
upperneck 32.5259 -2.2268 1.64954
head 17.0075 -1.1628 1.11003
rclavicle -2.5842e-015 2.54444e-014
rhumerus 32.4554 16.7019 -70.4559
rradius 39.1948
rwrist 9.28331
rhand -30.0882 -36.9458
rfingers 7.12502
rthumb -3.40264 -66.8984
lclavicle -2.5842e-015 2.54444e-014
lhumerus 34.7873 -24.3074 67.561
lradius 39.3681
lwrist 48.2946
lhand -30.6677 16.8725
lfingers 7.12502
lthumb -3.96222 46.8154
rfemur -3.45566 -0.639189 14.9747
rtibia 1.43125e-014
rfoot -7.37685 -18.8194
rtoes 0.997706
lfemur -15.9823 -14.6447 -11.5322
ltibia 21.0017
lfoot -20.5106 10.1507
ltoes 14.7643
264
root -10.1784 18.2806 -16.5912 -160.657 87.592 -172.994
lowerback 7.41732 -0.70907 0.34263
upperback -2.43371 -0.734674 2.42361
thorax -6.68838 -0.309663 2.44229
lowerneck -30.037 -2.89836 -4.83157
upperneck 32.7053 -2.03782 1.48417
head 17.0439 -1.0918 1.05938
rclavicle 9.54166e-015 -1.66979e-014
rhumerus 29.5494 17.277 -70.3552
rradius 42.5733
rwrist 8.40473
rhand -31.0449 -36.0996
rfingers 7.12502
rthumb -4.32647 -66.0354
lclavicle 9.54166e-015 -1.66979e-014
lhumerus 32.1263 -24.2112 68.1252
lradius 41.9687
lwrist 48.8249
lhand -30.8527 16.694
lfingers 7.12502
lthumb -4.14092 46.6335
rfemur -3.25389 -0.694791 15.0075
rtibia -1.59028e-014
rfoot -7.29322 -18.9011
rtoes -0.219527
lfemur -15.8227 -14.688 -11.5674
ltibia 21.0599
lfoot -20.5927 10.0998
ltoes 14.7844
